<svg width="25" height="25" viewBox="0 0 25 25" fill="none" xmlns="http://www.w3.org/2000/svg">
<path d="M19.2022 6.4511L13.2878 3.91636C12.7847 3.70075 12.2153 3.70075 11.7122 3.91636L5.79778 6.4511C4.97855 6.8022 4.49051 7.65304 4.60106 8.53746L5.21405 13.4413C5.4342 15.2026 6.31517 16.8144 7.6787 17.9506L11.2196 20.9014C11.9613 21.5195 13.0387 21.5195 13.7804 20.9014L17.3213 17.9506C18.6848 16.8144 19.5658 15.2026 19.786 13.4413L20.3989 8.53746C20.5095 7.65304 20.0215 6.8022 19.2022 6.4511Z" stroke="#95E088" stroke-width="2" stroke-linecap="round"/>
<path d="M9.5 12.6667L12.0687 15.2354C12.2918 15.4585 12.6633 15.4217 12.8383 15.1592L16.5 9.66669" stroke="#95E088" stroke-width="2" stroke-linecap="round"/>
</svg>
