<svg width="25" height="25" viewBox="0 0 25 25" fill="none" xmlns="http://www.w3.org/2000/svg">
<path d="M12.5 20.3334L5.1797 11.183C4.84718 10.7674 4.68092 10.5595 4.63625 10.3091C4.59159 10.0586 4.67575 9.80613 4.84407 9.30116L5.5883 7.06846C6.02832 5.74842 6.24832 5.08841 6.7721 4.71089C7.29587 4.33337 7.99159 4.33337 9.38304 4.33337H15.617C17.0084 4.33337 17.7041 4.33337 18.2279 4.71089C18.7517 5.08841 18.9717 5.74842 19.4117 7.06846L20.1559 9.30116C20.3243 9.80613 20.4084 10.0586 20.3637 10.3091C20.3191 10.5595 20.1528 10.7674 19.8203 11.183L12.5 20.3334ZM12.5 20.3334L16 9.33337M12.5 20.3334L9 9.33337M20 10.3334L16 9.33337M16 9.33337L14.5 5.33337M16 9.33337H9M10.5 5.33337L9 9.33337M9 9.33337L5 10.3334" stroke="#95E088" stroke-width="1.6" stroke-linecap="round"/>
</svg>
