<svg width="25" height="24" viewBox="0 0 25 24" fill="none" xmlns="http://www.w3.org/2000/svg">
<path d="M9.64377 15.6858L8.71957 16.0677L9.64377 15.6858ZM9.41839 15.2337L8.62816 15.8465L9.41839 15.2337ZM15.5816 15.2337L16.3718 15.8465L15.5816 15.2337ZM17.5 10C17.5 11.6366 16.7147 13.0895 15.4962 14.0033L16.6961 15.6034C18.3966 14.3282 19.5 12.2928 19.5 10H17.5ZM12.5 5C15.2614 5 17.5 7.23858 17.5 10H19.5C19.5 6.13401 16.366 3 12.5 3V5ZM7.5 10C7.5 7.23858 9.73858 5 12.5 5V3C8.63401 3 5.5 6.13401 5.5 10H7.5ZM9.5038 14.0033C8.28526 13.0895 7.5 11.6366 7.5 10H5.5C5.5 12.2928 6.6034 14.3282 8.30393 15.6034L9.5038 14.0033ZM11.4973 19.743C11.4654 18.2148 11.1489 16.7097 10.568 15.3039L8.71957 16.0677C9.20598 17.2449 9.47101 18.5051 9.49775 19.7848L11.4973 19.743ZM13.8416 19.2111C12.9971 19.6334 12.0029 19.6334 11.1584 19.2111L10.2639 21C11.6716 21.7038 13.3284 21.7038 14.7361 21L13.8416 19.2111ZM14.432 15.3039C13.8511 16.7097 13.5346 18.2148 13.5027 19.743L15.5022 19.7848C15.529 18.5051 15.794 17.2449 16.2804 16.0677L14.432 15.3039ZM14.7361 21C15.208 20.764 15.4917 20.2888 15.5022 19.7848L13.5027 19.743C13.5072 19.5284 13.6285 19.3177 13.8416 19.2111L14.7361 21ZM9.49775 19.7848C9.50828 20.2888 9.79199 20.764 10.2639 21L11.1584 19.2111C11.3715 19.3177 11.4928 19.5284 11.4973 19.743L9.49775 19.7848ZM8.30393 15.6034C8.45483 15.7165 8.54298 15.7829 8.60525 15.8338C8.66783 15.885 8.65598 15.8824 8.62816 15.8465L10.2086 14.6209C10.0215 14.3795 9.73067 14.1734 9.5038 14.0033L8.30393 15.6034ZM10.568 15.3039C10.4896 15.1144 10.3913 14.8565 10.2086 14.6209L8.62816 15.8465C8.61465 15.8291 8.61215 15.8197 8.62521 15.8469C8.63306 15.8632 8.64391 15.8872 8.6602 15.9253C8.67665 15.9639 8.69514 16.0086 8.71957 16.0677L10.568 15.3039ZM15.4962 14.0033C15.2693 14.1734 14.9785 14.3795 14.7914 14.6209L16.3718 15.8465C16.344 15.8824 16.3322 15.885 16.3948 15.8338C16.457 15.7829 16.5452 15.7165 16.6961 15.6034L15.4962 14.0033ZM16.2804 16.0677C16.3049 16.0086 16.3233 15.9639 16.3398 15.9253C16.3561 15.8872 16.3669 15.8632 16.3748 15.8469C16.3879 15.8197 16.3853 15.8291 16.3718 15.8465L14.7914 14.6209C14.6087 14.8565 14.5104 15.1144 14.432 15.3039L16.2804 16.0677Z" fill="#95E088"/>
<path d="M15.492 16V16C13.681 17.2106 11.3189 17.2106 9.50781 16V16" stroke="#95E088" stroke-width="2"/>
</svg>
