<svg width="48" height="48" viewBox="0 0 48 48" fill="none" xmlns="http://www.w3.org/2000/svg">
<rect x="1" y="1" width="46" height="46" rx="23" stroke="#F3FCFF" stroke-width="2"/>
<path d="M24 29.2382C25.0476 29.2382 25.9047 28.3811 25.9047 27.3335C25.9047 26.2859 25.0476 25.4287 24 25.4287C22.9524 25.4287 22.0952 26.2859 22.0952 27.3335C22.0952 28.3811 22.9524 29.2382 24 29.2382Z" fill="#5D6A70"/>
<path d="M29.7142 20.6667H28.7618V18.7619C28.7618 16.1333 26.6285 14 23.9999 14C21.3714 14 19.238 16.1333 19.238 18.7619V20.6667H18.2856C17.238 20.6667 16.3809 21.5238 16.3809 22.5714V32.0953C16.3809 33.1429 17.238 34 18.2856 34H29.7142C30.7618 34 31.6189 33.1429 31.6189 32.0953V22.5714C31.619 21.5238 30.7618 20.6667 29.7142 20.6667ZM21.0475 18.7619C21.0475 17.1334 22.3714 15.8095 23.9999 15.8095C25.6285 15.8095 26.9523 17.1334 26.9523 18.7619V20.6667H21.0475V18.7619ZM29.7142 32.0952H18.2856V22.5714H29.7142V32.0952H29.7142Z" fill="#5D6A70"/>
</svg>
