<svg width="25" height="24" viewBox="0 0 25 24" fill="none" xmlns="http://www.w3.org/2000/svg">
<path d="M10.6439 6.62756C11.4305 4.66656 11.8238 3.68607 12.5001 3.68607C13.1764 3.68607 13.5697 4.66657 14.3563 6.62757L14.393 6.71888C14.8373 7.82675 15.0595 8.38068 15.5124 8.71737C15.9652 9.05406 16.5597 9.1073 17.7486 9.21377L17.9636 9.23302C19.9094 9.40729 20.8823 9.49442 21.0905 10.1134C21.2986 10.7324 20.5761 11.3897 19.1311 12.7044L18.6488 13.1432C17.9173 13.8087 17.5515 14.1415 17.3811 14.5776C17.3493 14.659 17.3228 14.7423 17.3019 14.8271C17.1899 15.2818 17.297 15.7645 17.5112 16.73L17.5778 17.0305C17.9715 18.8048 18.1684 19.692 17.8247 20.0747C17.6963 20.2177 17.5293 20.3206 17.3439 20.3712C16.8477 20.5066 16.1433 19.9326 14.7343 18.7845C13.8091 18.0306 13.3465 17.6536 12.8154 17.5688C12.6065 17.5355 12.3937 17.5355 12.1847 17.5688C11.6536 17.6536 11.1911 18.0306 10.2659 18.7845C8.85694 19.9326 8.15246 20.5066 7.65626 20.3712C7.47084 20.3206 7.30393 20.2177 7.17551 20.0747C6.83183 19.692 7.02866 18.8048 7.42234 17.0305L7.48902 16.73C7.70322 15.7645 7.81033 15.2818 7.69827 14.8271C7.67737 14.7423 7.65093 14.659 7.61913 14.5776C7.44866 14.1415 7.08291 13.8087 6.3514 13.1432L5.86912 12.7044C4.42408 11.3897 3.70155 10.7324 3.90973 10.1134C4.11791 9.49442 5.09082 9.40729 7.03663 9.23302L7.25157 9.21377C8.44049 9.1073 9.03494 9.05406 9.48779 8.71737C9.94064 8.38068 10.1628 7.82675 10.6072 6.71888L10.6439 6.62756Z" stroke="#95E088" stroke-width="2"/>
</svg>
