<svg width="33" height="32" viewBox="0 0 33 32" fill="none" xmlns="http://www.w3.org/2000/svg">
<rect x="0.5" width="32" height="32" rx="16" fill="url(#paint0_linear_113_3752)"/>
<path d="M13.6889 16.0971C13.6889 14.4887 14.9932 13.1845 16.6026 13.1845C18.212 13.1845 19.517 14.4887 19.517 16.0971C19.517 17.7056 18.212 19.0098 16.6026 19.0098C14.9932 19.0098 13.6889 17.7056 13.6889 16.0971ZM12.1134 16.0971C12.1134 18.575 14.1232 20.5836 16.6026 20.5836C19.082 20.5836 21.0918 18.575 21.0918 16.0971C21.0918 13.6192 19.082 11.6106 16.6026 11.6106C14.1232 11.6106 12.1134 13.6192 12.1134 16.0971ZM20.2204 11.4328C20.2203 11.6401 20.2818 11.8429 20.397 12.0153C20.5122 12.1878 20.676 12.3222 20.8676 12.4017C21.0593 12.4811 21.2702 12.502 21.4738 12.4616C21.6773 12.4212 21.8643 12.3214 22.011 12.1749C22.1578 12.0283 22.2578 11.8415 22.2984 11.6381C22.3389 11.4348 22.3182 11.2239 22.2389 11.0323C22.1596 10.8407 22.0252 10.6769 21.8527 10.5616C21.6802 10.4464 21.4774 10.3848 21.2699 10.3847H21.2695C20.9914 10.3848 20.7247 10.4953 20.528 10.6918C20.3313 10.8883 20.2206 11.1548 20.2204 11.4328ZM13.0706 23.2091C12.2183 23.1703 11.755 23.0284 11.4471 22.9085C11.039 22.7497 10.7477 22.5605 10.4415 22.2549C10.1353 21.9494 9.94579 21.6586 9.78759 21.2506C9.66757 20.9431 9.52559 20.48 9.48684 19.6281C9.44446 18.7071 9.436 18.4305 9.436 16.0972C9.436 13.7639 9.44516 13.488 9.48684 12.5663C9.52566 11.7144 9.66869 11.2522 9.78759 10.9438C9.94649 10.5358 10.1357 10.2448 10.4415 9.93875C10.7473 9.63274 11.0383 9.44332 11.4471 9.28521C11.7549 9.16526 12.2183 9.02337 13.0706 8.98465C13.9922 8.94229 14.269 8.93383 16.6026 8.93383C18.9362 8.93383 19.2133 8.94299 20.1356 8.98465C20.988 9.02344 21.4505 9.16638 21.7592 9.28521C22.1673 9.44332 22.4586 9.63316 22.7648 9.93875C23.071 10.2443 23.2598 10.5358 23.4187 10.9438C23.5387 11.2513 23.6807 11.7144 23.7194 12.5663C23.7618 13.488 23.7703 13.7639 23.7703 16.0972C23.7703 18.4305 23.7618 18.7064 23.7194 19.6281C23.6806 20.48 23.5379 20.943 23.4187 21.2506C23.2598 21.6586 23.0705 21.9496 22.7648 22.2549C22.459 22.5603 22.1673 22.7497 21.7592 22.9085C21.4514 23.0284 20.988 23.1703 20.1356 23.2091C19.2141 23.2514 18.9373 23.2599 16.6026 23.2599C14.2679 23.2599 13.9919 23.2514 13.0706 23.2091ZM12.9983 7.41278C12.0676 7.45513 11.4316 7.60262 10.8762 7.8186C10.301 8.04165 9.81409 8.34088 9.32752 8.8264C8.84095 9.31191 8.5423 9.79931 8.31912 10.3742C8.10301 10.9296 7.95544 11.5648 7.91305 12.4949C7.86997 13.4265 7.86011 13.7244 7.86011 16.0971C7.86011 18.4699 7.86997 18.7677 7.91305 19.6993C7.95544 20.6295 8.10301 21.2647 8.31912 21.8201C8.5423 22.3946 8.84102 22.8826 9.32752 23.3679C9.81402 23.8532 10.301 24.152 10.8762 24.3757C11.4326 24.5916 12.0676 24.7391 12.9983 24.7815C13.9309 24.8238 14.2284 24.8344 16.6026 24.8344C18.9768 24.8344 19.2748 24.8245 20.207 24.7815C21.1377 24.7391 21.7733 24.5916 22.329 24.3757C22.9039 24.152 23.3911 23.8534 23.8777 23.3679C24.3643 22.8824 24.6623 22.3946 24.8861 21.8201C25.1022 21.2647 25.2505 20.6295 25.2922 19.6993C25.3346 18.767 25.3444 18.4699 25.3444 16.0971C25.3444 13.7244 25.3346 13.4265 25.2922 12.4949C25.2498 11.5647 25.1022 10.9292 24.8861 10.3742C24.6623 9.79966 24.3635 9.31268 23.8777 8.8264C23.3919 8.34011 22.9039 8.04165 22.3297 7.8186C21.7733 7.60262 21.1377 7.45444 20.2077 7.41278C19.2755 7.37042 18.9775 7.35986 16.6033 7.35986C14.2291 7.35986 13.9309 7.36972 12.9983 7.41278Z" fill="white"/>
<path d="M13.6889 16.0971C13.6889 14.4887 14.9932 13.1845 16.6026 13.1845C18.212 13.1845 19.517 14.4887 19.517 16.0971C19.517 17.7056 18.212 19.0098 16.6026 19.0098C14.9932 19.0098 13.6889 17.7056 13.6889 16.0971ZM12.1134 16.0971C12.1134 18.575 14.1232 20.5836 16.6026 20.5836C19.082 20.5836 21.0918 18.575 21.0918 16.0971C21.0918 13.6192 19.082 11.6106 16.6026 11.6106C14.1232 11.6106 12.1134 13.6192 12.1134 16.0971ZM20.2204 11.4328C20.2203 11.6401 20.2818 11.8429 20.397 12.0153C20.5122 12.1878 20.676 12.3222 20.8676 12.4017C21.0593 12.4811 21.2702 12.502 21.4738 12.4616C21.6773 12.4212 21.8643 12.3214 22.011 12.1749C22.1578 12.0283 22.2578 11.8415 22.2984 11.6381C22.3389 11.4348 22.3182 11.2239 22.2389 11.0323C22.1596 10.8407 22.0252 10.6769 21.8527 10.5616C21.6802 10.4464 21.4774 10.3848 21.2699 10.3847H21.2695C20.9914 10.3848 20.7247 10.4953 20.528 10.6918C20.3313 10.8883 20.2206 11.1548 20.2204 11.4328ZM13.0706 23.2091C12.2183 23.1703 11.755 23.0284 11.4471 22.9085C11.039 22.7497 10.7477 22.5605 10.4415 22.2549C10.1353 21.9494 9.94579 21.6586 9.78759 21.2506C9.66757 20.9431 9.52559 20.48 9.48684 19.6281C9.44446 18.7071 9.436 18.4305 9.436 16.0972C9.436 13.7639 9.44516 13.488 9.48684 12.5663C9.52566 11.7144 9.66869 11.2522 9.78759 10.9438C9.94649 10.5358 10.1357 10.2448 10.4415 9.93875C10.7473 9.63274 11.0383 9.44332 11.4471 9.28521C11.7549 9.16526 12.2183 9.02337 13.0706 8.98465C13.9922 8.94229 14.269 8.93383 16.6026 8.93383C18.9362 8.93383 19.2133 8.94299 20.1356 8.98465C20.988 9.02344 21.4505 9.16638 21.7592 9.28521C22.1673 9.44332 22.4586 9.63316 22.7648 9.93875C23.071 10.2443 23.2598 10.5358 23.4187 10.9438C23.5387 11.2513 23.6807 11.7144 23.7194 12.5663C23.7618 13.488 23.7703 13.7639 23.7703 16.0972C23.7703 18.4305 23.7618 18.7064 23.7194 19.6281C23.6806 20.48 23.5379 20.943 23.4187 21.2506C23.2598 21.6586 23.0705 21.9496 22.7648 22.2549C22.459 22.5603 22.1673 22.7497 21.7592 22.9085C21.4514 23.0284 20.988 23.1703 20.1356 23.2091C19.2141 23.2514 18.9373 23.2599 16.6026 23.2599C14.2679 23.2599 13.9919 23.2514 13.0706 23.2091ZM12.9983 7.41278C12.0676 7.45513 11.4316 7.60262 10.8762 7.8186C10.301 8.04165 9.81409 8.34088 9.32752 8.8264C8.84095 9.31191 8.5423 9.79931 8.31912 10.3742C8.10301 10.9296 7.95544 11.5648 7.91305 12.4949C7.86997 13.4265 7.86011 13.7244 7.86011 16.0971C7.86011 18.4699 7.86997 18.7677 7.91305 19.6993C7.95544 20.6295 8.10301 21.2647 8.31912 21.8201C8.5423 22.3946 8.84102 22.8826 9.32752 23.3679C9.81402 23.8532 10.301 24.152 10.8762 24.3757C11.4326 24.5916 12.0676 24.7391 12.9983 24.7815C13.9309 24.8238 14.2284 24.8344 16.6026 24.8344C18.9768 24.8344 19.2748 24.8245 20.207 24.7815C21.1377 24.7391 21.7733 24.5916 22.329 24.3757C22.9039 24.152 23.3911 23.8534 23.8777 23.3679C24.3643 22.8824 24.6623 22.3946 24.8861 21.8201C25.1022 21.2647 25.2505 20.6295 25.2922 19.6993C25.3346 18.767 25.3444 18.4699 25.3444 16.0971C25.3444 13.7244 25.3346 13.4265 25.2922 12.4949C25.2498 11.5647 25.1022 10.9292 24.8861 10.3742C24.6623 9.79966 24.3635 9.31268 23.8777 8.8264C23.3919 8.34011 22.9039 8.04165 22.3297 7.8186C21.7733 7.60262 21.1377 7.45444 20.2077 7.41278C19.2755 7.37042 18.9775 7.35986 16.6033 7.35986C14.2291 7.35986 13.9309 7.36972 12.9983 7.41278Z" fill="white"/>
<defs>
<linearGradient id="paint0_linear_113_3752" x1="31.885" y1="32" x2="-0.115039" y2="-8.6135e-07" gradientUnits="userSpaceOnUse">
<stop stop-color="#FBE18A"/>
<stop offset="0.21" stop-color="#FCBB45"/>
<stop offset="0.38" stop-color="#F75274"/>
<stop offset="0.52" stop-color="#D53692"/>
<stop offset="0.74" stop-color="#8F39CE"/>
<stop offset="1" stop-color="#5B4FE9"/>
</linearGradient>
</defs>
</svg>
