<svg width="33" height="32" viewBox="0 0 33 32" fill="none" xmlns="http://www.w3.org/2000/svg">
<rect x="0.5" width="32" height="32" rx="16" fill="#33CCFF"/>
<path d="M24.4414 10.8973C23.913 11.1247 23.3575 11.283 22.7887 11.3684C23.0546 11.3228 23.4459 10.8441 23.6017 10.6503C23.8384 10.358 24.0187 10.0244 24.1336 9.66629C24.1336 9.63969 24.1602 9.6017 24.1336 9.5827C24.1202 9.57539 24.1052 9.57155 24.0899 9.57155C24.0747 9.57155 24.0596 9.57539 24.0462 9.5827C23.4285 9.9172 22.7711 10.1725 22.0896 10.3426C22.0658 10.3498 22.0406 10.3505 22.0165 10.3444C21.9924 10.3384 21.9704 10.326 21.9528 10.3084C21.8998 10.2452 21.8427 10.1855 21.7819 10.1298C21.5039 9.88074 21.1885 9.67689 20.8472 9.52571C20.3866 9.33673 19.889 9.25488 19.3921 9.28636C18.9099 9.31681 18.4392 9.44613 18.0092 9.66629C17.5857 9.8984 17.2135 10.2137 16.915 10.5933C16.6009 10.984 16.3742 11.4374 16.2501 11.9231C16.1477 12.385 16.1361 12.8624 16.2159 13.3288C16.2159 13.4086 16.2159 13.42 16.1475 13.4086C13.4386 13.0097 11.216 12.0484 9.39995 9.98543C9.32017 9.89425 9.27837 9.89425 9.21379 9.98543C8.42353 11.186 8.80726 13.0857 9.79508 14.0241C9.92805 14.1495 10.0648 14.271 10.2092 14.385C9.75629 14.3529 9.31445 14.2301 8.90984 14.0241C8.83386 13.9747 8.79206 14.0013 8.78826 14.0925C8.77749 14.2189 8.77749 14.346 8.78826 14.4724C8.86754 15.0782 9.1063 15.6521 9.48012 16.1354C9.85394 16.6187 10.3494 16.9941 10.9159 17.2231C11.054 17.2822 11.1978 17.3268 11.3452 17.3561C10.9259 17.4386 10.4959 17.4514 10.0724 17.3941C9.98124 17.3751 9.94705 17.4244 9.98124 17.5118C10.5397 19.0316 11.7517 19.4951 12.6407 19.7534C12.7623 19.7724 12.8839 19.7724 13.0207 19.8028C13.0207 19.8028 13.0207 19.8028 12.9979 19.8256C12.7357 20.3043 11.6757 20.6273 11.1894 20.7944C10.3018 21.1133 9.35539 21.2351 8.41593 21.1516C8.26776 21.1288 8.23357 21.1326 8.19557 21.1516C8.15758 21.1706 8.19557 21.2123 8.23737 21.2503C8.42733 21.3757 8.6173 21.4859 8.81486 21.5923C9.40301 21.9131 10.0248 22.1679 10.6689 22.3521C14.0047 23.2716 17.7584 22.5953 20.2621 20.1068C22.2302 18.1539 22.9216 15.4602 22.9216 12.7627C22.9216 12.6601 23.047 12.5993 23.1192 12.5462C23.6171 12.1582 24.0561 11.7 24.4224 11.186C24.4858 11.1094 24.5183 11.0118 24.5135 10.9125C24.5135 10.8555 24.5135 10.8669 24.4414 10.8973Z" fill="white"/>
</svg>
