<svg width="33" height="32" viewBox="0 0 33 32" fill="none" xmlns="http://www.w3.org/2000/svg">
<rect x="0.5" width="32" height="32" rx="16" fill="#FF3000"/>
<path fill-rule="evenodd" clip-rule="evenodd" d="M23.4665 9.98119C24.2529 10.1936 24.8709 10.8132 25.0799 11.5986C25.46 13.0241 25.46 16.0001 25.46 16.0001C25.46 16.0001 25.46 18.9761 25.0799 20.4016C24.868 21.1899 24.25 21.8096 23.4665 22.019C22.0447 22.4001 16.34 22.4001 16.34 22.4001C16.34 22.4001 10.6382 22.4001 9.21343 22.019C8.42707 21.8066 7.80901 21.187 7.60009 20.4016C7.21997 18.9761 7.21997 16.0001 7.21997 16.0001C7.21997 16.0001 7.21997 13.0241 7.60009 11.5986C7.81191 10.8103 8.42997 10.1906 9.21343 9.98119C10.6382 9.6001 16.34 9.6001 16.34 9.6001C16.34 9.6001 22.0447 9.6001 23.4665 9.98119ZM19.2562 16.0001L14.5177 18.7434V13.2568L19.2562 16.0001Z" fill="white"/>
</svg>
